<?xml version="1.0" encoding="UTF-8"?>
<svg viewBox="0 0 300 66" width="300" height="66" xmlns="http://www.w3.org/2000/svg">
  <g transform="matrix(1, 0, 0, 1, -1.7763568394002505e-15, 0)">
    <g>
      <g>
        <path d="M8.58 14.97L45.95 14.97L45.95 52.34L8.58 52.34L8.58 14.97Z" id="" transform="matrix(1, 0, 0, 1, 0, 0)" style="fill: rgb(35, 78, 116);"/>
      </g>
      <g id="f2wvBOPBkY" transform="matrix(1, 0, 0, 1, 1.631243, -5.594729)">
        <path d="M 20.194 23.929 C 21.527 23.929 22.694 24.232 23.694 24.839 C 24.701 25.439 25.477 26.312 26.024 27.459 C 26.577 28.599 26.854 29.959 26.854 31.539 C 26.854 33.086 26.571 34.452 26.004 35.639 C 25.437 36.832 24.647 37.756 23.634 38.409 C 22.621 39.069 21.467 39.399 20.174 39.399 C 18.841 39.399 17.674 39.099 16.674 38.499 C 15.674 37.892 14.897 37.019 14.344 35.879 C 13.797 34.732 13.524 33.369 13.524 31.789 C 13.524 30.242 13.807 28.876 14.374 27.689 C 14.941 26.496 15.731 25.572 16.744 24.919 C 17.751 24.259 18.901 23.929 20.194 23.929 Z M 20.114 24.309 C 19.221 24.309 18.431 24.622 17.744 25.249 C 17.064 25.876 16.537 26.749 16.164 27.869 C 15.797 28.982 15.614 30.262 15.614 31.709 C 15.614 33.162 15.817 34.442 16.224 35.549 C 16.637 36.656 17.197 37.512 17.904 38.119 C 18.611 38.719 19.394 39.019 20.254 39.019 C 21.154 39.019 21.944 38.706 22.624 38.079 C 23.304 37.452 23.827 36.579 24.194 35.459 C 24.567 34.346 24.754 33.066 24.754 31.619 C 24.754 30.166 24.547 28.886 24.134 27.779 C 23.727 26.672 23.171 25.819 22.464 25.219 C 21.757 24.612 20.974 24.309 20.114 24.309 Z" transform="matrix(1, 0, 0, 1, 0, 0)" style="fill: rgb(255, 255, 255); white-space: pre;"/>
      </g>
      <g id="a3b78HvPb4">
        <path d="M 136.58 195.86 C 136.073 195.88 135.707 195.937 135.48 196.03 C 135.253 196.117 135.097 196.28 135.01 196.52 C 134.923 196.76 134.88 197.143 134.88 197.67 L 134.88 208.08 C 134.88 208.607 134.923 208.99 135.01 209.23 C 135.097 209.47 135.253 209.637 135.48 209.73 C 135.707 209.817 136.073 209.87 136.58 209.89 L 136.58 210.31 C 136 210.27 135.107 210.25 133.9 210.25 C 132.773 210.25 131.883 210.27 131.23 210.31 L 131.23 209.89 C 131.737 209.87 132.103 209.817 132.33 209.73 C 132.557 209.637 132.713 209.47 132.8 209.23 C 132.887 208.99 132.93 208.607 132.93 208.08 L 132.93 203.04 L 126.1 203.04 L 126.1 208.08 C 126.1 208.607 126.143 208.99 126.23 209.23 C 126.317 209.47 126.473 209.637 126.7 209.73 C 126.933 209.817 127.3 209.87 127.8 209.89 L 127.8 210.31 C 127.16 210.27 126.273 210.25 125.14 210.25 C 123.933 210.25 123.037 210.27 122.45 210.31 L 122.45 209.89 C 122.957 209.87 123.323 209.817 123.55 209.73 C 123.783 209.637 123.943 209.47 124.03 209.23 C 124.11 208.99 124.15 208.607 124.15 208.08 L 124.15 197.67 C 124.15 197.143 124.11 196.76 124.03 196.52 C 123.943 196.28 123.783 196.117 123.55 196.03 C 123.323 195.937 122.957 195.88 122.45 195.86 L 122.45 195.44 C 123.03 195.48 123.927 195.5 125.14 195.5 C 126.273 195.5 127.16 195.48 127.8 195.44 L 127.8 195.86 C 127.3 195.88 126.933 195.937 126.7 196.03 C 126.473 196.117 126.317 196.28 126.23 196.52 C 126.143 196.76 126.1 197.143 126.1 197.67 L 126.1 202.62 L 132.93 202.62 L 132.93 197.67 C 132.93 197.143 132.887 196.76 132.8 196.52 C 132.713 196.28 132.557 196.117 132.33 196.03 C 132.103 195.937 131.737 195.88 131.23 195.86 L 131.23 195.44 C 131.883 195.48 132.773 195.5 133.9 195.5 C 135.1 195.5 135.993 195.48 136.58 195.44 L 136.58 195.86 Z" transform="matrix(1, 0, 0, 1, -102.03032684326172, -169.34286499023438)" style="fill: rgb(255, 255, 255); line-height: 21px; white-space: pre; alignment-baseline: before-edge;"/>
      </g>
      <g id="d3mUQwSUe">
        <path d="M 134.13 210.31 C 134.117 210.023 134.06 209.75 133.96 209.49 C 133.853 209.237 133.72 209.11 133.56 209.11 C 133.467 209.11 133.38 209.133 133.3 209.18 C 133.22 209.22 133.077 209.317 132.87 209.47 C 132.377 209.843 131.87 210.127 131.35 210.32 C 130.823 210.513 130.237 210.61 129.59 210.61 C 128.157 210.61 126.923 210.313 125.89 209.72 C 124.857 209.12 124.067 208.26 123.52 207.14 C 122.98 206.02 122.71 204.683 122.71 203.13 C 122.71 201.523 122.997 200.117 123.57 198.91 C 124.15 197.703 124.953 196.773 125.98 196.12 C 127.007 195.467 128.17 195.14 129.47 195.14 C 130.037 195.14 130.54 195.2 130.98 195.32 C 131.42 195.44 131.803 195.593 132.13 195.78 C 132.45 195.967 132.823 196.21 133.25 196.51 C 133.43 196.65 133.57 196.72 133.67 196.72 C 133.937 196.72 134.11 196.293 134.19 195.44 L 134.67 195.44 C 134.617 196.353 134.59 197.963 134.59 200.27 L 134.11 200.27 C 133.99 199.517 133.857 198.9 133.71 198.42 C 133.57 197.94 133.35 197.52 133.05 197.16 C 132.643 196.66 132.117 196.26 131.47 195.96 C 130.817 195.667 130.133 195.52 129.42 195.52 C 128.5 195.52 127.69 195.823 126.99 196.43 C 126.297 197.03 125.757 197.883 125.37 198.99 C 124.99 200.103 124.8 201.407 124.8 202.9 C 124.8 204.58 124.98 205.957 125.34 207.03 C 125.7 208.103 126.247 208.897 126.98 209.41 C 127.713 209.93 128.653 210.19 129.8 210.19 C 130.647 210.19 131.377 209.97 131.99 209.53 C 132.243 209.357 132.407 209.193 132.48 209.04 C 132.553 208.88 132.59 208.66 132.59 208.38 L 132.59 206.36 C 132.59 205.78 132.537 205.357 132.43 205.09 C 132.317 204.817 132.117 204.63 131.83 204.53 C 131.543 204.43 131.09 204.367 130.47 204.34 L 130.47 203.92 C 131.163 203.967 132.15 203.99 133.43 203.99 C 134.417 203.99 135.147 203.967 135.62 203.92 L 135.62 204.34 C 135.293 204.367 135.06 204.423 134.92 204.51 C 134.78 204.597 134.683 204.757 134.63 204.99 C 134.577 205.223 134.55 205.61 134.55 206.15 L 134.55 210.31 L 134.13 210.31 Z" transform="matrix(1, 0, 0, 1, -96.17485809326172, -161.81655883789062)" style="fill: rgb(255, 255, 255); line-height: 21px; white-space: pre; alignment-baseline: before-edge;"/>
      </g>
      <g id="aWkvz83yt" transform="matrix(1, 0, 0, 1, -5.51684, -0.568235)">
        <path d="M 130.48 195.98 C 132 195.98 133.333 196.323 134.48 197.01 C 135.627 197.697 136.513 198.693 137.14 200 C 137.767 201.313 138.08 202.87 138.08 204.67 C 138.08 206.437 137.757 208 137.11 209.36 C 136.463 210.72 135.56 211.773 134.4 212.52 C 133.247 213.273 131.93 213.65 130.45 213.65 C 128.93 213.65 127.597 213.307 126.45 212.62 C 125.303 211.933 124.417 210.933 123.79 209.62 C 123.163 208.313 122.85 206.757 122.85 204.95 C 122.85 203.19 123.173 201.63 123.82 200.27 C 124.467 198.91 125.37 197.853 126.53 197.1 C 127.683 196.353 129 195.98 130.48 195.98 Z M 130.38 196.41 C 129.36 196.41 128.46 196.767 127.68 197.48 C 126.893 198.2 126.29 199.197 125.87 200.47 C 125.45 201.75 125.24 203.213 125.24 204.86 C 125.24 206.527 125.473 207.993 125.94 209.26 C 126.407 210.52 127.047 211.493 127.86 212.18 C 128.667 212.873 129.563 213.22 130.55 213.22 C 131.57 213.22 132.47 212.86 133.25 212.14 C 134.023 211.427 134.623 210.433 135.05 209.16 C 135.47 207.88 135.68 206.417 135.68 204.77 C 135.68 203.103 135.447 201.637 134.98 200.37 C 134.507 199.103 133.87 198.127 133.07 197.44 C 132.263 196.753 131.367 196.41 130.38 196.41 ZM 141.329 201.6 C 141.829 201.393 142.259 201.063 142.619 200.61 C 142.979 200.163 143.159 199.71 143.159 199.25 C 143.159 199.05 143.136 198.88 143.089 198.74 C 142.816 198.953 142.519 199.06 142.199 199.06 C 141.759 199.06 141.392 198.92 141.099 198.64 C 140.806 198.367 140.659 197.993 140.659 197.52 C 140.659 197.087 140.809 196.723 141.109 196.43 C 141.402 196.137 141.766 195.99 142.199 195.99 C 142.812 195.99 143.282 196.243 143.609 196.75 C 143.882 197.17 144.019 197.697 144.019 198.33 C 144.019 199.137 143.816 199.86 143.409 200.5 C 142.996 201.133 142.376 201.647 141.549 202.04 L 141.329 201.6 ZM 146.252 196.32 C 147.112 196.373 147.892 196.4 148.592 196.4 L 149.182 196.39 C 151.382 196.343 152.589 196.32 152.802 196.32 C 155.629 196.32 157.749 197.027 159.162 198.44 C 160.569 199.853 161.272 201.917 161.272 204.63 C 161.272 206.37 160.932 207.893 160.252 209.2 C 159.565 210.513 158.569 211.527 157.262 212.24 C 155.962 212.953 154.405 213.31 152.592 213.31 C 152.372 213.31 151.849 213.297 151.022 213.27 C 150.202 213.25 149.602 213.24 149.222 213.24 C 147.915 213.24 146.925 213.263 146.252 213.31 L 146.252 212.83 C 146.832 212.803 147.252 212.74 147.512 212.64 C 147.772 212.54 147.952 212.353 148.052 212.08 C 148.145 211.807 148.192 211.37 148.192 210.77 L 148.192 198.86 C 148.192 198.26 148.145 197.823 148.052 197.55 C 147.952 197.277 147.772 197.09 147.512 196.99 C 147.252 196.883 146.832 196.82 146.252 196.8 L 146.252 196.32 Z M 150.422 210.81 C 150.422 211.39 150.469 211.823 150.562 212.11 C 150.655 212.397 150.829 212.597 151.082 212.71 C 151.335 212.823 151.715 212.88 152.222 212.88 C 153.929 212.88 155.265 212.57 156.232 211.95 C 157.205 211.33 157.889 210.43 158.282 209.25 C 158.675 208.063 158.872 206.553 158.872 204.72 C 158.872 202.873 158.655 201.37 158.222 200.21 C 157.795 199.05 157.095 198.183 156.122 197.61 C 155.149 197.037 153.842 196.75 152.202 196.75 C 151.702 196.75 151.329 196.807 151.082 196.92 C 150.829 197.033 150.655 197.233 150.562 197.52 C 150.469 197.813 150.422 198.243 150.422 198.81 L 150.422 210.81 ZM 170.16 203.51 C 170.16 202.583 169.967 201.95 169.58 201.61 C 169.193 201.27 168.643 201.1 167.93 201.1 C 166.797 201.1 166.003 201.383 165.55 201.95 C 165.87 202.03 166.137 202.2 166.35 202.46 C 166.57 202.727 166.68 203.047 166.68 203.42 C 166.68 203.827 166.55 204.143 166.29 204.37 C 166.037 204.603 165.697 204.72 165.27 204.72 C 164.863 204.72 164.544 204.583 164.31 204.31 C 164.083 204.037 163.97 203.677 163.97 203.23 C 163.97 202.603 164.343 202.033 165.09 201.52 C 165.483 201.26 165.967 201.047 166.54 200.88 C 167.113 200.707 167.753 200.62 168.46 200.62 C 169.113 200.62 169.69 200.7 170.19 200.86 C 170.69 201.02 171.08 201.24 171.36 201.52 C 171.727 201.893 171.98 202.33 172.12 202.83 C 172.253 203.323 172.32 204.007 172.32 204.88 L 172.32 211.55 C 172.32 211.95 172.377 212.24 172.49 212.42 C 172.604 212.6 172.794 212.69 173.06 212.69 C 173.26 212.69 173.44 212.647 173.6 212.56 C 173.767 212.473 173.947 212.347 174.14 212.18 L 174.41 212.6 C 174.13 212.807 173.897 212.97 173.71 213.09 C 173.523 213.203 173.307 213.297 173.06 213.37 C 172.82 213.437 172.54 213.47 172.22 213.47 C 171.447 213.47 170.91 213.277 170.61 212.89 C 170.31 212.503 170.16 211.987 170.16 211.34 C 169.687 212.113 169.124 212.663 168.47 212.99 C 167.81 213.31 167.14 213.47 166.46 213.47 C 165.907 213.47 165.4 213.377 164.94 213.19 C 164.48 212.997 164.11 212.7 163.83 212.3 C 163.557 211.893 163.42 211.39 163.42 210.79 C 163.42 210.183 163.567 209.663 163.86 209.23 C 164.16 208.803 164.58 208.427 165.12 208.1 C 165.66 207.773 166.38 207.42 167.28 207.04 C 167.44 206.98 167.824 206.823 168.43 206.57 C 169.044 206.323 169.483 206.073 169.75 205.82 C 170.023 205.573 170.16 205.3 170.16 205 L 170.16 203.51 Z M 170.16 205.99 C 170.04 206.17 169.843 206.337 169.57 206.49 C 169.297 206.643 168.727 206.933 167.86 207.36 C 167.4 207.573 167.01 207.797 166.69 208.03 C 166.37 208.263 166.097 208.573 165.87 208.96 C 165.643 209.353 165.53 209.833 165.53 210.4 C 165.53 211.1 165.703 211.627 166.05 211.98 C 166.404 212.333 166.87 212.51 167.45 212.51 C 168.51 212.51 169.413 211.907 170.16 210.7 L 170.16 205.99 ZM 182.313 200.95 C 183.153 200.997 183.823 201.02 184.323 201.02 C 185.036 201.02 185.646 200.997 186.153 200.95 L 186.153 201.43 C 185.833 201.47 185.546 201.613 185.293 201.86 C 185.046 202.113 184.813 202.53 184.593 203.11 L 180.653 213.43 L 179.833 215.51 C 179.533 216.303 179.189 216.867 178.803 217.2 C 178.349 217.613 177.726 217.82 176.933 217.82 C 176.453 217.82 176.059 217.693 175.753 217.44 C 175.453 217.187 175.303 216.833 175.303 216.38 C 175.303 216 175.416 215.693 175.643 215.46 C 175.869 215.227 176.183 215.11 176.583 215.11 C 176.929 215.11 177.219 215.21 177.453 215.41 C 177.679 215.603 177.793 215.88 177.793 216.24 C 177.793 216.713 177.579 217.073 177.153 217.32 C 177.186 217.333 177.233 217.34 177.293 217.34 C 178.173 217.34 178.853 216.717 179.333 215.47 L 180.183 213.27 L 175.833 202.8 C 175.559 202.247 175.286 201.883 175.013 201.71 C 174.746 201.537 174.476 201.45 174.203 201.45 L 174.203 200.95 C 174.949 201.05 175.733 201.1 176.553 201.1 C 177.239 201.1 178.279 201.05 179.673 200.95 L 179.673 201.45 C 179.279 201.45 178.973 201.463 178.753 201.49 C 178.539 201.517 178.359 201.59 178.213 201.71 C 178.066 201.837 177.993 202.027 177.993 202.28 C 177.993 202.573 178.096 202.97 178.303 203.47 L 181.193 210.64 L 183.843 203.69 C 184.016 203.223 184.103 202.857 184.103 202.59 C 184.103 202.21 183.959 201.933 183.673 201.76 C 183.386 201.58 182.933 201.47 182.313 201.43 L 182.313 200.95 ZM 209.523 196.8 C 208.943 196.82 208.523 196.883 208.263 196.99 C 207.996 197.09 207.816 197.277 207.723 197.55 C 207.623 197.823 207.573 198.26 207.573 198.86 L 207.573 210.77 C 207.573 211.37 207.623 211.807 207.723 212.08 C 207.816 212.353 207.996 212.54 208.263 212.64 C 208.523 212.74 208.943 212.803 209.523 212.83 L 209.523 213.31 C 208.856 213.263 207.833 213.24 206.453 213.24 C 205.166 213.24 204.15 213.263 203.403 213.31 L 203.403 212.83 C 203.983 212.803 204.403 212.74 204.663 212.64 C 204.923 212.54 205.103 212.353 205.203 212.08 C 205.296 211.807 205.343 211.37 205.343 210.77 L 205.343 205 L 197.543 205 L 197.543 210.77 C 197.543 211.37 197.593 211.807 197.693 212.08 C 197.786 212.353 197.966 212.54 198.233 212.64 C 198.493 212.74 198.913 212.803 199.493 212.83 L 199.493 213.31 C 198.753 213.263 197.736 213.24 196.443 213.24 C 195.07 213.24 194.046 213.263 193.373 213.31 L 193.373 212.83 C 193.953 212.803 194.373 212.74 194.633 212.64 C 194.893 212.54 195.073 212.353 195.173 212.08 C 195.266 211.807 195.313 211.37 195.313 210.77 L 195.313 198.86 C 195.313 198.26 195.266 197.823 195.173 197.55 C 195.073 197.277 194.893 197.09 194.633 196.99 C 194.373 196.883 193.953 196.82 193.373 196.8 L 193.373 196.32 C 194.033 196.367 195.056 196.39 196.443 196.39 C 197.736 196.39 198.753 196.367 199.493 196.32 L 199.493 196.8 C 198.913 196.82 198.493 196.883 198.233 196.99 C 197.966 197.09 197.786 197.277 197.693 197.55 C 197.593 197.823 197.543 198.26 197.543 198.86 L 197.543 204.52 L 205.343 204.52 L 205.343 198.86 C 205.343 198.26 205.296 197.823 205.203 197.55 C 205.103 197.277 204.923 197.09 204.663 196.99 C 204.403 196.883 203.983 196.82 203.403 196.8 L 203.403 196.32 C 204.15 196.367 205.166 196.39 206.453 196.39 C 207.826 196.39 208.85 196.367 209.523 196.32 L 209.523 196.8 ZM 218.09 203.51 C 218.09 202.583 217.897 201.95 217.51 201.61 C 217.123 201.27 216.573 201.1 215.86 201.1 C 214.727 201.1 213.933 201.383 213.48 201.95 C 213.8 202.03 214.067 202.2 214.28 202.46 C 214.5 202.727 214.61 203.047 214.61 203.42 C 214.61 203.827 214.48 204.143 214.22 204.37 C 213.967 204.603 213.627 204.72 213.2 204.72 C 212.793 204.72 212.473 204.583 212.24 204.31 C 212.013 204.037 211.9 203.677 211.9 203.23 C 211.9 202.603 212.273 202.033 213.02 201.52 C 213.413 201.26 213.897 201.047 214.47 200.88 C 215.043 200.707 215.683 200.62 216.39 200.62 C 217.043 200.62 217.62 200.7 218.12 200.86 C 218.62 201.02 219.01 201.24 219.29 201.52 C 219.657 201.893 219.91 202.33 220.05 202.83 C 220.183 203.323 220.25 204.007 220.25 204.88 L 220.25 211.55 C 220.25 211.95 220.307 212.24 220.42 212.42 C 220.533 212.6 220.723 212.69 220.99 212.69 C 221.19 212.69 221.37 212.647 221.53 212.56 C 221.697 212.473 221.877 212.347 222.07 212.18 L 222.34 212.6 C 222.06 212.807 221.827 212.97 221.64 213.09 C 221.453 213.203 221.237 213.297 220.99 213.37 C 220.75 213.437 220.47 213.47 220.15 213.47 C 219.377 213.47 218.84 213.277 218.54 212.89 C 218.24 212.503 218.09 211.987 218.09 211.34 C 217.617 212.113 217.053 212.663 216.4 212.99 C 215.74 213.31 215.07 213.47 214.39 213.47 C 213.837 213.47 213.33 213.377 212.87 213.19 C 212.41 212.997 212.04 212.7 211.76 212.3 C 211.487 211.893 211.35 211.39 211.35 210.79 C 211.35 210.183 211.497 209.663 211.79 209.23 C 212.09 208.803 212.51 208.427 213.05 208.1 C 213.59 207.773 214.31 207.42 215.21 207.04 C 215.37 206.98 215.753 206.823 216.36 206.57 C 216.973 206.323 217.413 206.073 217.68 205.82 C 217.953 205.573 218.09 205.3 218.09 205 L 218.09 203.51 Z M 218.09 205.99 C 217.97 206.17 217.773 206.337 217.5 206.49 C 217.227 206.643 216.657 206.933 215.79 207.36 C 215.33 207.573 214.94 207.797 214.62 208.03 C 214.3 208.263 214.027 208.573 213.8 208.96 C 213.573 209.353 213.46 209.833 213.46 210.4 C 213.46 211.1 213.633 211.627 213.98 211.98 C 214.333 212.333 214.8 212.51 215.38 212.51 C 216.44 212.51 217.343 211.907 218.09 210.7 L 218.09 205.99 ZM 227.043 203.69 C 227.223 203.19 227.483 202.707 227.823 202.24 C 228.156 201.767 228.56 201.38 229.033 201.08 C 229.5 200.773 229.996 200.62 230.523 200.62 C 230.943 200.62 231.32 200.703 231.653 200.87 C 231.986 201.037 232.246 201.267 232.433 201.56 C 232.62 201.847 232.713 202.163 232.713 202.51 C 232.713 202.93 232.586 203.287 232.333 203.58 C 232.086 203.873 231.756 204.02 231.343 204.02 C 230.99 204.02 230.686 203.907 230.433 203.68 C 230.186 203.46 230.063 203.157 230.063 202.77 C 230.063 202.25 230.336 201.817 230.883 201.47 C 230.776 201.317 230.61 201.24 230.383 201.24 C 229.75 201.24 229.176 201.483 228.663 201.97 C 228.156 202.45 227.76 203.047 227.473 203.76 C 227.186 204.473 227.043 205.137 227.043 205.75 L 227.043 210.84 C 227.043 211.58 227.253 212.093 227.673 212.38 C 228.093 212.667 228.73 212.81 229.583 212.81 L 229.583 213.31 C 227.616 213.25 226.386 213.22 225.893 213.22 C 225.466 213.22 224.52 213.25 223.053 213.31 L 223.053 212.81 C 223.506 212.81 223.863 212.757 224.123 212.65 C 224.39 212.55 224.583 212.377 224.703 212.13 C 224.823 211.877 224.883 211.527 224.883 211.08 L 224.883 203.57 C 224.883 202.83 224.75 202.29 224.483 201.95 C 224.21 201.617 223.733 201.45 223.053 201.45 L 223.053 200.95 C 223.553 200.997 224.05 201.02 224.543 201.02 C 225.556 201.02 226.39 200.91 227.043 200.69 L 227.043 203.69 ZM 237.719 203.69 C 237.899 203.19 238.159 202.707 238.499 202.24 C 238.832 201.767 239.235 201.38 239.709 201.08 C 240.175 200.773 240.672 200.62 241.199 200.62 C 241.619 200.62 241.995 200.703 242.329 200.87 C 242.662 201.037 242.922 201.267 243.109 201.56 C 243.295 201.847 243.389 202.163 243.389 202.51 C 243.389 202.93 243.262 203.287 243.009 203.58 C 242.762 203.873 242.432 204.02 242.019 204.02 C 241.665 204.02 241.362 203.907 241.109 203.68 C 240.862 203.46 240.739 203.157 240.739 202.77 C 240.739 202.25 241.012 201.817 241.559 201.47 C 241.452 201.317 241.285 201.24 241.059 201.24 C 240.425 201.24 239.852 201.483 239.339 201.97 C 238.832 202.45 238.435 203.047 238.149 203.76 C 237.862 204.473 237.719 205.137 237.719 205.75 L 237.719 210.84 C 237.719 211.58 237.929 212.093 238.349 212.38 C 238.769 212.667 239.405 212.81 240.259 212.81 L 240.259 213.31 C 238.292 213.25 237.062 213.22 236.569 213.22 C 236.142 213.22 235.195 213.25 233.729 213.31 L 233.729 212.81 C 234.182 212.81 234.539 212.757 234.799 212.65 C 235.065 212.55 235.259 212.377 235.379 212.13 C 235.499 211.877 235.559 211.527 235.559 211.08 L 235.559 203.57 C 235.559 202.83 235.425 202.29 235.159 201.95 C 234.885 201.617 234.409 201.45 233.729 201.45 L 233.729 200.95 C 234.229 200.997 234.725 201.02 235.219 201.02 C 236.232 201.02 237.065 200.91 237.719 200.69 L 237.719 203.69 ZM 247.145 194.95 C 247.418 194.95 247.675 195.02 247.915 195.16 C 248.148 195.3 248.335 195.487 248.475 195.72 C 248.615 195.953 248.685 196.207 248.685 196.48 C 248.685 196.753 248.615 197.01 248.475 197.25 C 248.335 197.49 248.148 197.677 247.915 197.81 C 247.675 197.95 247.418 198.02 247.145 198.02 C 246.871 198.02 246.618 197.95 246.385 197.81 C 246.145 197.677 245.955 197.49 245.815 197.25 C 245.681 197.01 245.615 196.753 245.615 196.48 C 245.615 196.207 245.681 195.953 245.815 195.72 C 245.955 195.487 246.145 195.3 246.385 195.16 C 246.618 195.02 246.871 194.95 247.145 194.95 Z M 248.395 211.08 C 248.395 211.527 248.455 211.877 248.575 212.13 C 248.695 212.377 248.885 212.55 249.145 212.65 C 249.405 212.757 249.761 212.81 250.215 212.81 L 250.215 213.31 C 248.748 213.25 247.781 213.22 247.315 213.22 C 246.841 213.22 245.871 213.25 244.405 213.31 L 244.405 212.81 C 244.858 212.81 245.215 212.757 245.475 212.65 C 245.741 212.55 245.935 212.377 246.055 212.13 C 246.175 211.877 246.235 211.527 246.235 211.08 L 246.235 203.57 C 246.235 202.83 246.101 202.29 245.835 201.95 C 245.561 201.617 245.085 201.45 244.405 201.45 L 244.405 200.95 C 244.905 200.997 245.401 201.02 245.895 201.02 C 246.908 201.02 247.741 200.91 248.395 200.69 L 248.395 211.08 ZM 252.716 208.68 C 252.829 209.673 252.996 210.49 253.216 211.13 C 253.436 211.77 253.772 212.27 254.226 212.63 C 254.679 212.99 255.289 213.17 256.056 213.17 C 256.409 213.17 256.746 213.093 257.066 212.94 C 257.392 212.787 257.662 212.54 257.876 212.2 C 258.082 211.86 258.186 211.42 258.186 210.88 C 258.186 210.447 258.076 210.057 257.856 209.71 C 257.629 209.357 257.336 209.043 256.976 208.77 C 256.622 208.49 256.119 208.147 255.466 207.74 C 254.679 207.24 254.076 206.83 253.656 206.51 C 253.242 206.19 252.889 205.8 252.596 205.34 C 252.309 204.88 252.166 204.337 252.166 203.71 C 252.166 203.03 252.326 202.46 252.646 202 C 252.966 201.533 253.392 201.187 253.926 200.96 C 254.459 200.733 255.056 200.62 255.716 200.62 C 256.276 200.62 256.782 200.71 257.236 200.89 C 257.682 201.07 258.046 201.273 258.326 201.5 C 258.499 201.633 258.639 201.7 258.746 201.7 C 259.032 201.7 259.212 201.347 259.286 200.64 L 259.836 200.64 C 259.776 201.42 259.746 202.78 259.746 204.72 L 259.196 204.72 C 259.022 203.667 258.682 202.797 258.176 202.11 C 257.669 201.423 256.919 201.08 255.926 201.08 C 255.346 201.08 254.872 201.24 254.506 201.56 C 254.139 201.887 253.956 202.34 253.956 202.92 C 253.956 203.473 254.146 203.933 254.526 204.3 C 254.906 204.673 255.362 205.027 255.896 205.36 C 256.429 205.7 256.809 205.943 257.036 206.09 C 257.769 206.57 258.362 206.993 258.816 207.36 C 259.262 207.733 259.626 208.16 259.906 208.64 C 260.179 209.12 260.316 209.67 260.316 210.29 C 260.316 210.997 260.132 211.603 259.766 212.11 C 259.392 212.61 258.892 212.993 258.266 213.26 C 257.646 213.52 256.962 213.65 256.216 213.65 C 255.509 213.65 254.876 213.537 254.316 213.31 C 254.009 213.157 253.682 212.943 253.336 212.67 C 253.276 212.603 253.202 212.57 253.116 212.57 C 252.882 212.57 252.719 212.87 252.626 213.47 L 252.066 213.47 C 252.132 212.557 252.166 210.96 252.166 208.68 L 252.716 208.68 ZM 268.015 200.62 C 269.075 200.62 270.012 200.85 270.825 201.31 C 271.645 201.77 272.288 202.487 272.755 203.46 C 273.228 204.433 273.465 205.663 273.465 207.15 C 273.465 208.63 273.228 209.857 272.755 210.83 C 272.288 211.797 271.645 212.507 270.825 212.96 C 270.012 213.42 269.075 213.65 268.015 213.65 C 266.962 213.65 266.028 213.42 265.215 212.96 C 264.395 212.507 263.748 211.797 263.275 210.83 C 262.808 209.857 262.575 208.63 262.575 207.15 C 262.575 205.663 262.808 204.433 263.275 203.46 C 263.748 202.487 264.395 201.77 265.215 201.31 C 266.028 200.85 266.962 200.62 268.015 200.62 Z M 268.015 201.1 C 267.055 201.1 266.295 201.593 265.735 202.58 C 265.182 203.56 264.905 205.083 264.905 207.15 C 264.905 209.203 265.182 210.72 265.735 211.7 C 266.295 212.68 267.055 213.17 268.015 213.17 C 268.982 213.17 269.742 212.68 270.295 211.7 C 270.855 210.72 271.135 209.203 271.135 207.15 C 271.135 205.083 270.855 203.56 270.295 202.58 C 269.742 201.593 268.982 201.1 268.015 201.1 ZM 279.273 203.51 C 279.667 202.497 280.223 201.76 280.943 201.3 C 281.657 200.847 282.463 200.62 283.363 200.62 C 284.477 200.62 285.323 200.92 285.903 201.52 C 286.197 201.847 286.41 202.25 286.543 202.73 C 286.67 203.21 286.733 203.857 286.733 204.67 L 286.733 211.08 C 286.733 211.527 286.793 211.877 286.913 212.13 C 287.033 212.377 287.227 212.55 287.493 212.65 C 287.753 212.757 288.11 212.81 288.563 212.81 L 288.563 213.31 C 287.097 213.25 286.137 213.22 285.683 213.22 C 285.237 213.22 284.34 213.25 282.993 213.31 L 282.993 212.81 C 283.393 212.81 283.703 212.757 283.923 212.65 C 284.15 212.55 284.317 212.377 284.423 212.13 C 284.523 211.877 284.573 211.527 284.573 211.08 L 284.573 204.15 C 284.573 203.57 284.53 203.083 284.443 202.69 C 284.35 202.303 284.163 201.987 283.883 201.74 C 283.597 201.5 283.18 201.38 282.633 201.38 C 281.973 201.38 281.39 201.57 280.883 201.95 C 280.37 202.337 279.973 202.863 279.693 203.53 C 279.413 204.197 279.273 204.937 279.273 205.75 L 279.273 211.08 C 279.273 211.527 279.323 211.877 279.423 212.13 C 279.53 212.377 279.697 212.55 279.923 212.65 C 280.15 212.757 280.463 212.81 280.863 212.81 L 280.863 213.31 C 279.517 213.25 278.617 213.22 278.163 213.22 C 277.71 213.22 276.75 213.25 275.283 213.31 L 275.283 212.81 C 275.737 212.81 276.093 212.757 276.353 212.65 C 276.62 212.55 276.813 212.377 276.933 212.13 C 277.053 211.877 277.113 211.527 277.113 211.08 L 277.113 203.57 C 277.113 202.83 276.98 202.29 276.713 201.95 C 276.44 201.617 275.963 201.45 275.283 201.45 L 275.283 200.95 C 275.783 200.997 276.28 201.02 276.773 201.02 C 277.787 201.02 278.62 200.91 279.273 200.69 L 279.273 203.51 ZM 309.262 213.31 C 309.242 212.983 309.175 212.673 309.062 212.38 C 308.942 212.087 308.789 211.94 308.602 211.94 C 308.502 211.94 308.405 211.967 308.312 212.02 C 308.219 212.067 308.052 212.177 307.812 212.35 C 307.252 212.777 306.672 213.1 306.072 213.32 C 305.479 213.54 304.809 213.65 304.062 213.65 C 302.422 213.65 301.012 213.31 299.832 212.63 C 298.652 211.95 297.752 210.97 297.132 209.69 C 296.512 208.41 296.202 206.883 296.202 205.11 C 296.202 203.27 296.532 201.66 297.192 200.28 C 297.852 198.907 298.769 197.847 299.942 197.1 C 301.115 196.353 302.442 195.98 303.922 195.98 C 304.575 195.98 305.152 196.047 305.652 196.18 C 306.159 196.32 306.595 196.493 306.962 196.7 C 307.335 196.913 307.765 197.193 308.252 197.54 C 308.452 197.7 308.612 197.78 308.732 197.78 C 309.039 197.78 309.239 197.293 309.332 196.32 L 309.882 196.32 C 309.815 197.36 309.782 199.2 309.782 201.84 L 309.232 201.84 C 309.092 200.98 308.942 200.273 308.782 199.72 C 308.615 199.173 308.365 198.697 308.032 198.29 C 307.559 197.71 306.952 197.253 306.212 196.92 C 305.472 196.58 304.695 196.41 303.882 196.41 C 302.822 196.41 301.895 196.753 301.102 197.44 C 300.302 198.127 299.685 199.107 299.252 200.38 C 298.812 201.647 298.592 203.133 298.592 204.84 C 298.592 206.76 298.799 208.333 299.212 209.56 C 299.619 210.787 300.242 211.693 301.082 212.28 C 301.922 212.873 302.999 213.17 304.312 213.17 C 305.272 213.17 306.105 212.92 306.812 212.42 C 307.099 212.227 307.285 212.04 307.372 211.86 C 307.459 211.68 307.502 211.43 307.502 211.11 L 307.502 208.8 C 307.502 208.133 307.439 207.647 307.312 207.34 C 307.185 207.033 306.959 206.823 306.632 206.71 C 306.305 206.597 305.785 206.523 305.072 206.49 L 305.072 206.01 C 305.865 206.063 306.995 206.09 308.462 206.09 C 309.589 206.09 310.419 206.063 310.952 206.01 L 310.952 206.49 C 310.579 206.523 310.312 206.587 310.152 206.68 C 309.992 206.78 309.882 206.963 309.822 207.23 C 309.769 207.497 309.742 207.937 309.742 208.55 L 309.742 213.31 L 309.262 213.31 ZM 316.457 203.69 C 316.637 203.19 316.897 202.707 317.237 202.24 C 317.57 201.767 317.974 201.38 318.447 201.08 C 318.914 200.773 319.41 200.62 319.937 200.62 C 320.357 200.62 320.734 200.703 321.067 200.87 C 321.4 201.037 321.66 201.267 321.847 201.56 C 322.034 201.847 322.127 202.163 322.127 202.51 C 322.127 202.93 322 203.287 321.747 203.58 C 321.5 203.873 321.17 204.02 320.757 204.02 C 320.404 204.02 320.1 203.907 319.847 203.68 C 319.6 203.46 319.477 203.157 319.477 202.77 C 319.477 202.25 319.75 201.817 320.297 201.47 C 320.19 201.317 320.024 201.24 319.797 201.24 C 319.164 201.24 318.59 201.483 318.077 201.97 C 317.57 202.45 317.174 203.047 316.887 203.76 C 316.6 204.473 316.457 205.137 316.457 205.75 L 316.457 210.84 C 316.457 211.58 316.667 212.093 317.087 212.38 C 317.507 212.667 318.144 212.81 318.997 212.81 L 318.997 213.31 C 317.03 213.25 315.8 213.22 315.307 213.22 C 314.88 213.22 313.934 213.25 312.467 213.31 L 312.467 212.81 C 312.92 212.81 313.277 212.757 313.537 212.65 C 313.804 212.55 313.997 212.377 314.117 212.13 C 314.237 211.877 314.297 211.527 314.297 211.08 L 314.297 203.57 C 314.297 202.83 314.164 202.29 313.897 201.95 C 313.624 201.617 313.147 201.45 312.467 201.45 L 312.467 200.95 C 312.967 200.997 313.464 201.02 313.957 201.02 C 314.97 201.02 315.804 200.91 316.457 200.69 L 316.457 203.69 ZM 330.133 203.51 C 330.133 202.583 329.939 201.95 329.553 201.61 C 329.166 201.27 328.616 201.1 327.903 201.1 C 326.77 201.1 325.976 201.383 325.523 201.95 C 325.843 202.03 326.109 202.2 326.323 202.46 C 326.543 202.727 326.653 203.047 326.653 203.42 C 326.653 203.827 326.523 204.143 326.263 204.37 C 326.009 204.603 325.669 204.72 325.243 204.72 C 324.836 204.72 324.516 204.583 324.283 204.31 C 324.056 204.037 323.943 203.677 323.943 203.23 C 323.943 202.603 324.316 202.033 325.063 201.52 C 325.456 201.26 325.939 201.047 326.513 200.88 C 327.086 200.707 327.726 200.62 328.433 200.62 C 329.086 200.62 329.663 200.7 330.163 200.86 C 330.663 201.02 331.053 201.24 331.333 201.52 C 331.699 201.893 331.953 202.33 332.093 202.83 C 332.226 203.323 332.293 204.007 332.293 204.88 L 332.293 211.55 C 332.293 211.95 332.349 212.24 332.463 212.42 C 332.576 212.6 332.766 212.69 333.033 212.69 C 333.233 212.69 333.413 212.647 333.573 212.56 C 333.74 212.473 333.919 212.347 334.113 212.18 L 334.383 212.6 C 334.103 212.807 333.869 212.97 333.683 213.09 C 333.496 213.203 333.279 213.297 333.033 213.37 C 332.793 213.437 332.513 213.47 332.193 213.47 C 331.419 213.47 330.883 213.277 330.583 212.89 C 330.283 212.503 330.133 211.987 330.133 211.34 C 329.659 212.113 329.096 212.663 328.443 212.99 C 327.783 213.31 327.113 213.47 326.433 213.47 C 325.879 213.47 325.373 213.377 324.913 213.19 C 324.453 212.997 324.083 212.7 323.803 212.3 C 323.529 211.893 323.393 211.39 323.393 210.79 C 323.393 210.183 323.539 209.663 323.833 209.23 C 324.133 208.803 324.553 208.427 325.093 208.1 C 325.633 207.773 326.353 207.42 327.253 207.04 C 327.413 206.98 327.796 206.823 328.403 206.57 C 329.016 206.323 329.456 206.073 329.723 205.82 C 329.996 205.573 330.133 205.3 330.133 205 L 330.133 203.51 Z M 330.133 205.99 C 330.013 206.17 329.816 206.337 329.543 206.49 C 329.27 206.643 328.699 206.933 327.833 207.36 C 327.373 207.573 326.983 207.797 326.663 208.03 C 326.343 208.263 326.069 208.573 325.843 208.96 C 325.616 209.353 325.503 209.833 325.503 210.4 C 325.503 211.1 325.676 211.627 326.023 211.98 C 326.376 212.333 326.843 212.51 327.423 212.51 C 328.483 212.51 329.386 211.907 330.133 210.7 L 330.133 205.99 ZM 339.086 203.51 C 339.479 202.497 340.036 201.76 340.756 201.3 C 341.469 200.847 342.276 200.62 343.176 200.62 C 344.289 200.62 345.136 200.92 345.716 201.52 C 346.009 201.847 346.223 202.25 346.356 202.73 C 346.483 203.21 346.546 203.857 346.546 204.67 L 346.546 211.08 C 346.546 211.527 346.606 211.877 346.726 212.13 C 346.846 212.377 347.039 212.55 347.306 212.65 C 347.566 212.757 347.923 212.81 348.376 212.81 L 348.376 213.31 C 346.909 213.25 345.949 213.22 345.496 213.22 C 345.049 213.22 344.153 213.25 342.806 213.31 L 342.806 212.81 C 343.206 212.81 343.516 212.757 343.736 212.65 C 343.963 212.55 344.129 212.377 344.236 212.13 C 344.336 211.877 344.386 211.527 344.386 211.08 L 344.386 204.15 C 344.386 203.57 344.343 203.083 344.256 202.69 C 344.163 202.303 343.976 201.987 343.696 201.74 C 343.409 201.5 342.993 201.38 342.446 201.38 C 341.786 201.38 341.203 201.57 340.696 201.95 C 340.183 202.337 339.786 202.863 339.506 203.53 C 339.226 204.197 339.086 204.937 339.086 205.75 L 339.086 211.08 C 339.086 211.527 339.136 211.877 339.236 212.13 C 339.343 212.377 339.509 212.55 339.736 212.65 C 339.963 212.757 340.276 212.81 340.676 212.81 L 340.676 213.31 C 339.329 213.25 338.429 213.22 337.976 213.22 C 337.523 213.22 336.563 213.25 335.096 213.31 L 335.096 212.81 C 335.549 212.81 335.906 212.757 336.166 212.65 C 336.433 212.55 336.626 212.377 336.746 212.13 C 336.866 211.877 336.926 211.527 336.926 211.08 L 336.926 203.57 C 336.926 202.83 336.793 202.29 336.526 201.95 C 336.253 201.617 335.776 201.45 335.096 201.45 L 335.096 200.95 C 335.596 200.997 336.093 201.02 336.586 201.02 C 337.599 201.02 338.433 200.91 339.086 200.69 L 339.086 203.51 ZM 353.298 200.97 L 356.848 200.97 L 356.848 201.45 L 353.298 201.45 L 353.298 210.74 C 353.298 211.467 353.428 211.99 353.688 212.31 C 353.941 212.623 354.321 212.78 354.828 212.78 C 355.328 212.78 355.755 212.58 356.108 212.18 C 356.461 211.787 356.758 211.133 356.998 210.22 L 357.468 210.33 C 357.075 212.543 356.035 213.65 354.348 213.65 C 353.808 213.65 353.365 213.587 353.018 213.46 C 352.665 213.327 352.351 213.123 352.078 212.85 C 351.731 212.503 351.488 212.073 351.348 211.56 C 351.208 211.047 351.138 210.357 351.138 209.49 L 351.138 201.45 L 348.828 201.45 L 348.828 200.97 L 351.138 200.97 L 351.138 197.3 C 352.038 197.28 352.758 197.167 353.298 196.96 L 353.298 200.97 Z" transform="matrix(1, 0, 0, 1, -62.08327865600586, -169.81936645507812)" style="fill: rgb(0, 48, 91); line-height: 24px; white-space: pre; alignment-baseline: before-edge;"/>
      </g>
    </g>
  </g>
</svg>